<?xml version="1.0" encoding="utf-8"?>
<!-- Generator: Adobe Illustrator 27.0.0, SVG Export Plug-In . SVG Version: 6.00 Build 0)  -->
<svg version="1.1" id="Layer_1" xmlns="http://www.w3.org/2000/svg" xmlns:xlink="http://www.w3.org/1999/xlink" x="0px" y="0px"
	 width="300px" height="150px" viewBox="0 0 300 150" style="enable-background:new 0 0 300 150;" xml:space="preserve">
<style type="text/css">
	.st0{fill:#FFFFFF;}
	.st1{fill:#571AFF;}
	.st2{fill-rule:evenodd;clip-rule:evenodd;fill:#FFFBFF;}
</style>
<g>
	<g>
		<path class="st0" d="M92.1,73.4c-1.3-0.5-3.2-0.9-5.5-1.1l-4.8-0.4c-0.9-0.1-1.6-0.3-2.1-0.4c-0.5-0.1-0.9-0.4-1.1-0.7
			c-0.3-0.3-0.3-0.5-0.3-0.9c0-0.5,0.1-0.9,0.5-1.2c0.4-0.4,0.9-0.7,1.7-0.8c0.7-0.1,1.6-0.3,2.5-0.3c1.1,0,2,0.1,2.8,0.3
			c0.8,0.3,1.5,0.5,1.9,0.9c0.4,0.4,0.7,0.9,0.8,1.5h6.7c-0.1-1.6-0.7-2.9-1.7-4.1c-1.1-1.2-2.4-2.1-4.3-2.8
			c-1.7-0.7-3.9-0.9-6.2-0.9c-2.4,0-4.4,0.3-6.2,0.9c-1.7,0.5-3.1,1.5-4,2.7c-0.9,1.2-1.5,2.5-1.5,4.1c0,1.3,0.3,2.5,0.9,3.5
			c0.7,0.9,1.7,1.7,3.1,2.4c1.3,0.5,3.2,0.9,5.4,1.2l4.4,0.4c0.9,0.1,1.7,0.3,2.3,0.4c0.5,0.1,0.9,0.4,1.2,0.7
			c0.3,0.3,0.4,0.7,0.4,1.1c0,0.5-0.3,0.9-0.7,1.3c-0.4,0.4-1.1,0.7-1.7,0.8c-0.8,0.1-1.7,0.3-2.8,0.3c-1.2,0-2.1-0.1-3.1-0.4
			s-1.6-0.7-2.1-1.1c-0.5-0.5-0.8-1.1-0.9-1.7h-6.7c0,1.6,0.7,3.1,1.7,4.4c1.1,1.2,2.5,2.3,4.4,2.9c1.9,0.7,4,1.1,6.6,1.1
			c2.4,0,4.5-0.4,6.3-1.1c1.9-0.7,3.2-1.6,4.3-2.9c0.9-1.2,1.5-2.7,1.5-4.4c0-1.3-0.3-2.5-0.9-3.3C94.3,74.6,93.4,73.9,92.1,73.4z"
			/>
		<path class="st0" d="M114,79L114,79h6.6c-0.1,0.1-0.1,0.1-0.3,0.3c-0.7,0.8-1.6,1.5-2.8,1.9c-1.2,0.4-2.5,0.7-4.1,0.7
			c-1.6,0-3.1-0.3-4.1-0.8c-1.2-0.5-2.1-1.3-2.7-2.4c-0.7-1.1-0.9-2.4-0.9-3.9c0-1.5,0.3-2.8,0.9-3.7c0.5-1.1,1.5-1.9,2.5-2.4
			c1.1-0.5,2.4-0.8,3.9-0.8c1.2,0,2.3,0.1,3.3,0.5c0.9,0.3,1.7,0.8,2.4,1.3c0.7,0.5,1.1,1.2,1.3,2h6.7c-0.3-1.7-1.1-3.5-2.3-4.8
			s-2.7-2.5-4.7-3.3c-2-0.8-4.1-1.2-6.7-1.2c-2.7,0-5.1,0.5-7.1,1.5c-2.1,0.9-3.7,2.4-5,4.3c-1.2,1.9-1.7,4.1-1.7,6.7
			c0,2.5,0.5,4.8,1.7,6.7c1.2,1.9,2.8,3.3,4.8,4.3c2,0.9,4.3,1.5,6.8,1.5c2.5,0,4.7-0.5,6.4-1.5c1.1-0.7,2.1-1.3,2.8-2.3l0.3,3.2
			h4.7V74.3h-12.7V79H114z"/>
		<path class="st0" d="M148.8,68.8c1.1-0.5,2.4-0.8,3.9-0.8c1.3,0,2.4,0.1,3.5,0.5c1.1,0.4,1.7,0.9,2.4,1.6c0.7,0.7,1.1,1.6,1.2,2.5
			h6.7c-0.3-2.1-0.9-3.9-2.1-5.5s-2.8-2.8-4.8-3.6c-2-0.9-4.3-1.3-6.7-1.3c-2.8,0-5.2,0.5-7.4,1.6c-2.1,1.1-3.7,2.5-5,4.4
			s-1.7,4-1.7,6.4s0.5,4.5,1.7,6.6c1.2,1.9,2.8,3.3,5,4.4s4.5,1.6,7.4,1.6c2.5,0,4.8-0.4,6.7-1.3c2-0.9,3.6-2.1,4.8-3.6
			c1.2-1.6,1.9-3.5,2.1-5.5h-6.7c-0.3,1.1-0.7,1.9-1.2,2.7c-0.7,0.7-1.5,1.2-2.4,1.6c-0.9,0.4-2.1,0.5-3.5,0.5
			c-1.5,0-2.8-0.3-3.9-0.8c-1.1-0.5-1.9-1.3-2.5-2.3c-0.5-1.1-0.8-2.1-0.8-3.6c0-1.3,0.3-2.5,0.8-3.6
			C146.9,70.2,147.9,69.4,148.8,68.8z"/>
		<path class="st0" d="M177.8,63l-11,23.7h7.1l2-4.5h12.4l2,4.5h7.1L186.7,63H177.8z M178.2,76.9l3.9-9l3.9,9H178.2z"/>
		<path class="st0" d="M218.8,73.4c-1.3-0.5-3.2-0.9-5.5-1.1l-4.8-0.4c-0.9-0.1-1.6-0.3-2.1-0.4c-0.5-0.1-0.9-0.4-1.1-0.7
			c-0.3-0.3-0.3-0.5-0.3-0.9c0-0.5,0.1-0.9,0.5-1.2c0.4-0.4,0.9-0.7,1.7-0.8c0.7-0.1,1.6-0.3,2.5-0.3c1.1,0,2,0.1,2.8,0.3
			c0.8,0.3,1.5,0.5,1.9,0.9c0.4,0.4,0.7,0.9,0.8,1.5h6.7c-0.1-1.6-0.7-2.9-1.7-4.1c-1.1-1.2-2.4-2.1-4.3-2.8
			c-1.7-0.7-3.9-0.9-6.2-0.9c-2.4,0-4.4,0.3-6.2,0.9c-1.7,0.5-3.1,1.5-4,2.7c-0.9,1.2-1.5,2.5-1.5,4.1c0,1.3,0.3,2.5,0.9,3.5
			c0.7,0.9,1.7,1.7,3.1,2.4c1.3,0.5,3.2,0.9,5.4,1.2l4.4,0.4c0.9,0.1,1.7,0.3,2.3,0.4c0.5,0.1,0.9,0.4,1.2,0.7
			c0.3,0.3,0.4,0.7,0.4,1.1c0,0.5-0.3,0.9-0.7,1.3c-0.4,0.4-1.1,0.7-1.7,0.8c-0.8,0.1-1.7,0.3-2.8,0.3c-1.2,0-2.1-0.1-3.1-0.4
			c-0.9-0.3-1.6-0.7-2.1-1.1c-0.5-0.5-0.8-1.1-0.9-1.7h-6.7c0,1.6,0.7,3.1,1.7,4.4c1.1,1.2,2.5,2.3,4.4,2.9c1.9,0.7,4,1.1,6.6,1.1
			c2.4,0,4.5-0.4,6.3-1.1c1.9-0.7,3.2-1.6,4.3-2.9c0.9-1.2,1.5-2.7,1.5-4.4c0-1.3-0.3-2.5-0.9-3.3C221.2,74.6,220.1,73.9,218.8,73.4
			z"/>
		<rect x="226.7" y="63" class="st0" width="6.7" height="23.7"/>
		<path class="st0" d="M258.5,79.1l-11.6-16.3h-8.6v23.7h6.4V70l11.8,16.7h8.3V63h-6.4v16.2H258.5z M260.5,82.1L260.5,82.1
			L260.5,82.1L260.5,82.1z"/>
		<path class="st0" d="M295.7,68.3c-1.2-1.9-2.8-3.3-5-4.4s-4.7-1.6-7.5-1.6s-5.4,0.5-7.5,1.6c-2.1,1.1-3.9,2.5-5,4.4
			c-1.2,1.9-1.7,4-1.7,6.4s0.5,4.5,1.7,6.6c1.2,1.9,2.8,3.3,5,4.4s4.7,1.6,7.5,1.6s5.4-0.5,7.5-1.6s3.9-2.5,5-4.4
			c1.2-1.9,1.7-4,1.7-6.4C297.5,72.3,296.9,70.2,295.7,68.3z M289.8,78.2c-0.7,0.9-1.5,1.7-2.7,2.3c-1.1,0.5-2.4,0.8-4,0.8l0,0
			c-1.6,0-2.9-0.3-4-0.8s-2-1.3-2.5-2.3c-0.7-0.9-0.9-2.1-0.9-3.5s0.3-2.5,0.9-3.5c0.7-0.9,1.5-1.7,2.5-2.3c1.2-0.5,2.5-0.8,4-0.8
			s2.8,0.3,4,0.8c1.2,0.5,2,1.2,2.7,2.3c0.7,0.9,0.9,2.1,0.9,3.5S290.5,77.3,289.8,78.2z"/>
	</g>
	<path class="st1" d="M47.6,48.9H9.8c-4,0-7.2,3.2-7.2,7.2l0,0v37.7c0,4,3.2,7.2,7.2,7.2l0,0h37.9c4,0,7.2-3.2,7.2-7.2l0,0V56.1
		C54.9,52.1,51.5,48.9,47.6,48.9L47.6,48.9z"/>
	<path class="st2" d="M16.3,65.6l-7.1,7.8C7.9,74.7,9,77,10.8,77h14.9c0.9,0,1.2-1.2,0.4-1.6L21.4,73c-1.2-0.7-0.8-2.4,0.5-2.4h9.8
		c0.3,0,0.4-0.1,0.7-0.3l6.8-6.8c0.4-0.4,0.4-0.9,0-1.2c-0.1-0.1-0.4-0.3-0.7-0.3H24.6C21.5,61.9,18.5,63.2,16.3,65.6z M40.5,84.8
		l7.1-7.8c1.3-1.3,0.3-3.6-1.6-3.6H31.3c-0.9,0-1.2,1.2-0.4,1.6l4.5,2.3c1.2,0.7,0.8,2.4-0.5,2.4h-9.8c-0.3,0-0.4,0.1-0.7,0.3
		l-6.8,6.8c-0.4,0.4-0.4,0.9,0,1.2c0.1,0.1,0.4,0.3,0.7,0.3h14C35.3,88.4,38.4,87.2,40.5,84.8z"/>
</g>
</svg>
